HIERARCHY
ROOT Hips
{
	OFFSET 0.000000 0.000000 0.000000
	CHANNELS 6 Xposition Yposition Zposition Zrotation Yrotation Xrotation 
	JOINT LeftUpLeg_virtual
	{
		OFFSET 0.000000 0.000000 0.000000
		CHANNELS 3 Zrotation Yrotation Xrotation
		JOINT LeftUpLeg
		{
			OFFSET 10.205400 -3.823500 0.155100
			CHANNELS 3 Zrotation Yrotation Xrotation
			JOINT LeftLeg
			{
				OFFSET 0.708757 -12.982077 0.567790
				CHANNELS 3 Zrotation Yrotation Xrotation
				JOINT LeftFoot
				{
					OFFSET -0.708756 -10.717838 -2.184338
					CHANNELS 3 Zrotation Yrotation Xrotation
					JOINT LeftToeBase
					{
						OFFSET 0.108149 -7.191104 7.560241
						CHANNELS 3 Zrotation Yrotation Xrotation
						End Site
						{
							OFFSET 0.000000 0.000000 0.000000
						}
					}
				}
			}
		}
	}
	JOINT RightUpLeg_virtual
	{
		OFFSET 0.000000 0.000000 0.000000
		CHANNELS 3 Zrotation Yrotation Xrotation
		JOINT RightUpLeg
		{
			OFFSET -10.205400 -3.823500 0.005500
			CHANNELS 3 Zrotation Yrotation Xrotation
			JOINT RightLeg
			{
				OFFSET -0.708756 -12.982134 0.610632
				CHANNELS 3 Zrotation Yrotation Xrotation
				JOINT RightFoot
				{
					OFFSET 0.708754 -10.717769 -1.945823
					CHANNELS 3 Zrotation Yrotation Xrotation
					JOINT RightToeBase
					{
						OFFSET -0.108140 -7.191069 7.372968
						CHANNELS 3 Zrotation Yrotation Xrotation
						End Site
						{
							OFFSET 0.000000 0.000000 0.000000
						}
					}
				}
			}
		}
	}
	JOINT Spine_virtual
	{
		OFFSET 0.000000 0.000000 0.000000
		CHANNELS 3 Zrotation Yrotation Xrotation
		JOINT Spine
		{
			OFFSET 0.000000 6.876099 0.125700
			CHANNELS 3 Zrotation Yrotation Xrotation
			JOINT Spine1
			{
				OFFSET 0.000000 8.022060 0.146608
				CHANNELS 3 Zrotation Yrotation Xrotation
				JOINT Spine2
				{
					OFFSET 0.000000 9.168068 0.167552
					CHANNELS 3 Zrotation Yrotation Xrotation
					JOINT Neck_virtual
					{
						OFFSET 0.000000 0.000000 0.000000
						CHANNELS 3 Zrotation Yrotation Xrotation
						JOINT Neck
						{
							OFFSET 0.000000 10.314075 0.188496
							CHANNELS 3 Zrotation Yrotation Xrotation
							JOINT Head
							{
								OFFSET 0.000000 7.643700 -2.377400
								CHANNELS 3 Zrotation Yrotation Xrotation
								End Site
								{
									OFFSET 0.000000 0.000000 0.000000
								}
							}
						}
					}
					JOINT LeftShoulder_virtual
					{
						OFFSET 0.000000 0.000000 0.000000
						CHANNELS 3 Zrotation Yrotation Xrotation
						JOINT LeftShoulder
						{
							OFFSET 4.392200 8.824978 0.174984
							CHANNELS 3 Zrotation Yrotation Xrotation
							JOINT LeftArm
							{
								OFFSET 8.771219 -2.981674 -0.026999
								CHANNELS 3 Zrotation Yrotation Xrotation
								JOINT LeftForeArm
								{
									OFFSET 8.512804 0.000000 -0.000000
									CHANNELS 3 Zrotation Yrotation Xrotation
									JOINT LeftHand
									{
										OFFSET 18.484802 0.000000 -0.000000
										CHANNELS 3 Zrotation Yrotation Xrotation
										End Site
										{
											OFFSET 0.000000 0.000000 0.000000
										}
									}
								}
							}
						}
					}
					JOINT RightShoulder_virtual
					{
						OFFSET 0.000000 0.000000 0.000000
						CHANNELS 3 Zrotation Yrotation Xrotation
						JOINT RightShoulder
						{
							OFFSET -4.392200 8.824993 0.141379
							CHANNELS 3 Zrotation Yrotation Xrotation
							JOINT RightArm
							{
								OFFSET -8.771282 -2.981682 -0.094208
								CHANNELS 3 Zrotation Yrotation Xrotation
								JOINT RightForeArm
								{
									OFFSET -8.494598 0.000000 0.000000
									CHANNELS 3 Zrotation Yrotation Xrotation
									JOINT RightHand
									{
										OFFSET -18.483803 0.000000 0.000001
										CHANNELS 3 Zrotation Yrotation Xrotation
										End Site
										{
											OFFSET 0.000000 0.000000 0.000000
										}
									}
								}
							}
						}
					}
				}
			}
		}
	}
}
MOTION
Frames: 9
Frame Time: 0.033333
10.868513 35.943050 -46.518970 179.885449 -40.225501 179.996139 0.427665 -6.846461 10.870928 -6.091952 0.423827 -21.824447 19.626441 9.944565 23.702951 -9.735759 -2.680759 15.211560 0.000000 0.000000 0.000000 4.301352 -5.116888 9.370646 -0.340676 15.805828 -29.368318 -9.774990 -0.438259 17.298207 7.915094 4.103849 11.023806 0.000000 0.000000 0.000000 3.886717 -2.132229 -5.461356 -7.683188 -5.615657 2.559638 3.092201 -2.569158 4.273126 0.010782 0.071667 0.004460 1.575621 0.016287 14.361803 2.468479 -19.451645 0.669580 0.000000 0.000000 0.000000 4.620603 0.944079 12.025522 -21.346346 -6.642327 -19.612798 -84.280067 15.514355 -112.315679 -10.578257 -82.593072 18.356203 0.000000 0.000000 0.000000 0.121254 1.729612 11.682129 20.452322 19.451404 -2.976790 38.295768 -24.628028 20.665017 -12.222905 38.193803 0.436779 0.000000 0.000000 0.000000 
10.871432 35.874756 -45.897629 179.771016 -40.281478 -179.648619 0.614358 -7.069800 10.254364 -6.481930 0.393479 -21.314512 19.558708 10.129868 23.671414 -9.716176 -2.587693 14.443994 0.000000 0.000000 0.000000 4.388078 -4.105227 8.730911 -0.678822 15.639571 -29.850642 -10.256013 1.318496 16.754007 7.616124 3.766216 10.672523 0.000000 0.000000 0.000000 3.849560 -2.007875 -6.234756 -7.238078 -4.924826 2.466766 3.018087 -2.508531 4.464856 -0.020828 0.099939 -0.019531 1.520315 0.013996 14.460378 2.629706 -19.821860 0.562644 0.000000 0.000000 0.000000 4.577181 1.004872 12.348787 -21.665616 -6.395200 -19.677148 -84.143812 14.952794 -113.259672 2.313459 -77.143421 4.561418 0.000000 0.000000 0.000000 0.018362 1.778282 11.806102 20.936734 19.620803 -2.941449 38.011983 -24.041813 21.067720 -12.132225 39.146256 0.464829 0.000000 0.000000 0.000000 
10.920602 35.756306 -45.022770 179.917510 -40.066603 -179.673577 0.990525 -6.847082 9.505903 -7.256525 0.179625 -20.845143 18.900042 9.962382 23.120182 -10.322880 -2.608081 12.483216 0.000000 0.000000 0.000000 4.490941 -3.623483 7.861930 -1.201584 15.563769 -30.989057 -11.036293 2.664805 17.245726 7.861492 4.204606 12.210169 0.000000 0.000000 0.000000 4.020093 -1.800345 -6.709434 -6.651736 -4.230912 1.776836 2.916684 -2.402359 4.791806 -0.007955 0.043704 0.067133 1.372688 0.331493 14.687707 2.667553 -20.301633 1.310324 0.000000 0.000000 0.000000 4.397164 1.276128 12.451536 -21.505219 -5.609735 -19.600882 -83.943947 14.440333 -113.873815 7.437373 -71.095808 -3.274886 0.000000 0.000000 0.000000 -0.291262 2.025241 11.917877 21.858390 18.803888 -2.961757 37.557875 -23.774253 22.255973 -12.029633 40.209846 0.479559 0.000000 0.000000 0.000000 
11.034326 35.680683 -44.187435 -179.985170 -39.264989 -179.702919 1.191603 -6.459210 9.030268 -8.338228 0.421142 -20.744126 18.439914 10.277363 22.420386 -9.870824 -1.623515 11.115448 0.000000 0.000000 0.000000 4.532159 -3.250694 7.338776 -1.915874 15.088182 -32.125515 -11.352562 1.681715 16.156997 8.849553 4.488170 15.507753 0.000000 0.000000 0.000000 4.169461 -1.596977 -6.847638 -6.213544 -3.678634 0.681295 2.796145 -2.182542 5.296262 0.019904 0.011098 -0.009618 1.273610 0.777547 15.095360 2.675605 -20.755104 2.469846 0.000000 0.000000 0.000000 4.239528 1.615700 12.781320 -20.877337 -5.024147 -19.206948 -83.222781 14.733234 -112.395366 7.761558 -64.216264 -6.580564 0.000000 0.000000 0.000000 -0.496634 2.370837 12.167401 23.101923 17.105804 -3.134029 37.149112 -23.983374 23.393400 -11.888317 41.273307 0.442904 0.000000 0.000000 0.000000 
11.200123 35.669952 -43.471954 179.921048 -38.191030 -179.535498 1.174786 -6.137935 8.958620 -9.327122 0.306714 -21.184701 18.402560 11.035062 21.756027 -8.829085 -0.356610 10.308149 0.000000 0.000000 0.000000 4.641208 -2.886914 7.119176 -2.343182 13.869802 -32.991446 -11.178751 1.061517 14.845575 8.930786 4.087219 17.051501 0.000000 0.000000 0.000000 4.171726 -1.342665 -6.884456 -6.000699 -3.293116 -0.769211 2.692695 -1.834855 5.841466 -0.002887 0.082749 0.141319 1.355321 0.980915 15.508443 2.697018 -20.901120 3.801434 0.000000 0.000000 0.000000 4.240095 1.997897 13.018444 -19.768683 -5.482416 -18.332776 -81.328224 17.093749 -107.317981 5.074185 -57.736696 -6.023318 0.000000 0.000000 0.000000 -0.521022 2.692919 12.448312 24.469264 14.895831 -3.465854 37.058544 -24.242097 24.181745 -11.741473 42.009557 0.771209 0.000000 0.000000 0.000000 
11.409076 35.704704 -42.927368 179.721347 -37.500532 -179.512521 0.808929 -6.052654 9.128661 -9.447098 -0.225152 -21.880494 18.381793 11.276977 21.196355 -8.287697 0.565110 10.603560 0.000000 0.000000 0.000000 4.474326 -2.859103 7.179507 -2.044797 12.951784 -32.947446 -11.202768 0.087721 14.434295 8.239182 3.453728 16.705133 0.000000 0.000000 0.000000 3.969525 -1.263382 -6.937304 -5.896578 -3.168714 -2.100424 2.648506 -1.557449 6.672059 0.026296 0.050130 0.062594 1.496607 1.312770 16.231610 2.676148 -20.898890 5.310920 0.000000 0.000000 0.000000 4.187717 2.174430 13.324278 -18.269817 -6.920058 -16.640135 -77.773629 22.300125 -96.353868 2.588096 -54.302797 -4.367082 0.000000 0.000000 0.000000 -0.507891 3.081128 12.960929 25.845280 12.657029 -3.851288 37.500809 -24.554482 24.739611 -11.491676 42.660235 0.829299 0.000000 0.000000 0.000000 
11.626839 35.783077 -42.546059 179.816205 -37.111529 -179.588513 0.530996 -5.855078 9.159051 -9.113188 -0.730220 -22.400082 18.388790 11.344113 20.754329 -8.164162 1.247050 11.088136 0.000000 0.000000 0.000000 4.429164 -2.670311 7.233796 -1.685591 12.869751 -32.631656 -11.207046 -0.563763 15.732881 7.474992 2.997737 15.587117 0.000000 0.000000 0.000000 3.724517 -1.118643 -7.341854 -5.564527 -3.140034 -3.191731 2.612124 -1.240465 7.587094 0.029350 0.051646 0.012739 1.700449 1.595628 16.928670 2.642505 -20.639807 6.609267 0.000000 0.000000 0.000000 4.168499 2.346930 13.784550 -16.701488 -9.298609 -14.440102 -71.057620 30.093175 -77.032540 0.104694 -52.903824 -1.604856 0.000000 0.000000 0.000000 -0.458774 3.357656 13.447045 27.260229 10.609025 -4.196951 38.840523 -24.737774 25.593526 -11.249315 43.272370 0.630610 0.000000 0.000000 0.000000 
11.753564 35.872078 -42.294537 179.958450 -36.958843 -179.691076 0.346414 -5.582514 8.812803 -8.848407 -0.884116 -22.519325 18.289778 11.165884 20.483083 -8.227823 1.825279 11.647200 0.000000 0.000000 0.000000 4.243313 -2.429557 6.870830 -1.252436 13.881222 -31.953070 -10.814863 0.857564 17.929832 7.444478 3.410405 15.555302 0.000000 0.000000 0.000000 3.344416 -0.856726 -8.185379 -5.091774 -3.057927 -3.973317 2.587541 -0.945170 8.561249 -0.010848 0.067053 -0.010576 1.916298 1.827742 17.656514 2.464990 -20.231423 8.090999 0.000000 0.000000 0.000000 4.153285 2.473399 14.209131 -15.700482 -11.988203 -12.013306 -59.340444 37.318887 -49.123830 -2.242361 -52.597883 1.565126 0.000000 0.000000 0.000000 -0.417305 3.560327 13.814394 28.494438 8.810921 -4.508791 40.821196 -25.441172 26.986205 -10.982259 44.011178 0.273107 0.000000 0.000000 0.000000 
11.776273 35.916424 -42.181568 -179.934258 -36.959397 -179.685953 0.344525 -5.375753 8.126296 -8.955757 -0.926494 -22.201615 18.527127 10.819477 20.446192 -8.438563 2.333229 12.179750 0.000000 0.000000 0.000000 4.101069 -2.334020 5.990826 -1.992124 16.670683 -31.092449 -10.398985 2.998455 19.240209 9.208423 5.330510 16.551749 0.000000 0.000000 0.000000 2.893950 -0.666184 -9.092418 -4.518197 -2.854417 -4.738908 2.466883 -0.720975 9.284387 -0.004477 0.039118 0.022119 1.909342 2.120521 18.057470 2.185001 -19.643797 9.567379 0.000000 0.000000 0.000000 4.015834 2.627247 14.576681 -15.246712 -14.086498 -9.448552 -45.987718 39.813801 -19.819076 -3.492935 -53.198718 3.653402 0.000000 0.000000 0.000000 -0.587314 3.880310 14.022414 29.326793 7.303385 -4.640163 43.162834 -26.775527 28.346074 -10.868161 44.446107 -0.493804 0.000000 0.000000 0.000000 
